<?xml version="1.0" encoding="utf-8"?>
<!-- Generator: Adobe Illustrator 22.1.0, SVG Export Plug-In . SVG Version: 6.00 Build 0)  -->
<svg version="1.1" id="Layer_1" xmlns="http://www.w3.org/2000/svg" xmlns:xlink="http://www.w3.org/1999/xlink" x="0px" y="0px"
	 viewBox="0 0 128 128" style="enable-background:new 0 0 128 128;" xml:space="preserve">
<style type="text/css">
	.st0{fill:#FFFFFF;}
</style>
<g>
	<path class="st0" d="M117.4,33.6l0.4-0.2c-0.6-1.2-1.5-2.1-2.4-2.7L67.1,2.9c-0.8-0.5-1.9-0.7-3.1-0.7s-2.3,0.3-3.1,0.7l-48,27.9
		c-1.7,1-2.9,3.5-2.9,5.4v55.7c0,1,0.2,2.2,0.9,3.3l-0.2,0.1c0.5,0.8,1.2,1.5,1.9,1.9l48.2,27.9c0.8,0.5,1.9,0.7,3.1,0.7
		c1.2,0,2.3-0.3,3.1-0.7l48-27.9c1.7-1,2.9-3.5,2.9-5.4V36.1C117.9,35.3,117.8,34.4,117.4,33.6z M64,103.5
		c-21.8,0-39.5-17.7-39.5-39.5S42.2,24.5,64,24.5c14.7,0,27.5,8.1,34.3,20l-13,7.5C81.1,44.5,73.1,39.5,64,39.5
		c-13.5,0-24.5,11-24.5,24.5s11,24.5,24.5,24.5c9.1,0,17.1-5,21.3-12.4l12.9,7.6C91.4,95.5,78.6,103.5,64,103.5z M114.7,61.8h-3.3
		l-0.9,4.3h4.2v4.7h-5.1l-1.2,6h-4.9l1.2-6h-3.8l-1.2,6h-4.8l1.2-6h-2.4v-4.7H97v0.1l0.9-4.3h-4.2v-4.7h5.1L100,51h4.9l-1.2,6.1h3.8
		l1.2-6.1h4.8l-1.2,6.1h2.4V61.8z M101.8,66.2h3.8l0.9-4.3h-3.8L101.8,66.2z"/>
</g>
</svg>
