<?xml version="1.0" encoding="utf-8"?>
<!-- Generator: Adobe Illustrator 22.1.0, SVG Export Plug-In . SVG Version: 6.00 Build 0)  -->
<svg version="1.1"
	 id="svg2" inkscape:version="0.91 r13725" sodipodi:docname="Discord Inverted Icon.svg" xmlns:cc="http://creativecommons.org/ns#" xmlns:dc="http://purl.org/dc/elements/1.1/" xmlns:inkscape="http://www.inkscape.org/namespaces/inkscape" xmlns:rdf="http://www.w3.org/1999/02/22-rdf-syntax-ns#" xmlns:sodipodi="http://sodipodi.sourceforge.net/DTD/sodipodi-0.dtd" xmlns:svg="http://www.w3.org/2000/svg"
	 xmlns="http://www.w3.org/2000/svg" xmlns:xlink="http://www.w3.org/1999/xlink" x="0px" y="0px" viewBox="0 0 1000 713.8"
	 style="enable-background:new 0 0 1000 713.8;" xml:space="preserve">
<style type="text/css">
	.st0{fill:#FFFFFF;}
</style>
<sodipodi:namedview  bordercolor="#666666" borderopacity="1" gridtolerance="10" guidetolerance="10" id="namedview10" inkscape:current-layer="svg2" inkscape:cx="279.29273" inkscape:cy="458.68978" inkscape:pageopacity="0" inkscape:pageshadow="2" inkscape:window-height="705" inkscape:window-maximized="1" inkscape:window-width="1366" inkscape:window-x="-8" inkscape:window-y="-8" inkscape:zoom="0.43741403" objecttolerance="10" pagecolor="#ffffff" showgrid="false">
	</sodipodi:namedview>
<path id="path8" inkscape:connector-curvature="0" class="st0" d="M362,0c-13.3,0.1-122.9,3.2-238.6,89.1
	C123.4,89.1,0,311.1,0,584.4c0,0,72,123.4,261.4,129.4c0,0,31.7-37.7,57.4-70.3c-108.8-32.6-150-100.3-150-100.3s8.6,6,24,14.6
	c0.9,0,1.7,0.9,3.4,1.7c2.6,1.7,5.1,2.6,7.7,4.3c21.4,12,42.8,21.4,62.6,29.1c35.1,14.6,77.1,27.4,126,36.8
	c64.3,12,139.7,16.3,221.9,0.9c40.3-7.7,81.4-18.9,124.3-36.8c30-11.1,63.4-27.4,98.5-50.6c0,0-42.8,69.4-155.1,101.1
	c25.7,31.7,56.6,68.5,56.6,68.5c189.4-6,261.4-129.4,261.4-128.5c0-273.4-123.4-495.3-123.4-495.3C754.1-2.6,636.7,0,636.7,0
	l-12,13.7c145.7,43.7,213.4,108,213.4,108c-89.1-48-176.5-72-257.9-81.4C518.4,33.4,459.3,35.1,407,42c-5.1,0-9.4,0.9-14.6,1.7
	c-30,3.4-102.8,13.7-194.5,54c-31.7,13.7-50.6,24-50.6,24S217.7,54,371.9,10.3L363.3,0C363.3,0,362.9,0,362,0L362,0z M340.2,316.2
	c48.8,0,88.3,42,87.4,94.3c0,52.3-38.6,94.3-87.4,94.3c-48,0-87.4-42-87.4-94.3C252.8,358.2,291.3,316.2,340.2,316.2L340.2,316.2z
	 M653,316.2c48,0,87.4,42,87.4,94.3c0,52.3-38.6,94.3-87.4,94.3c-48,0-87.4-42-87.4-94.3C565.6,358.2,604.1,316.2,653,316.2
	L653,316.2z"/>
</svg>
