<?xml version="1.0" encoding="utf-8"?>
<!-- Generator: Adobe Illustrator 22.1.0, SVG Export Plug-In . SVG Version: 6.00 Build 0)  -->
<svg version="1.1" id="Layer_2" xmlns="http://www.w3.org/2000/svg" xmlns:xlink="http://www.w3.org/1999/xlink" x="0px" y="0px"
	 viewBox="0 0 503.5 434.7" style="enable-background:new 0 0 503.5 434.7;" xml:space="preserve">
<style type="text/css">
	.st0{fill:#FFFFFF;}
</style>
<path class="st0" d="M94.8,346.3V213.8c0-48,39.3-87.3,87.3-87.3h132.5c12.2,0,23.9,2.6,34.5,7.2c0.1-1.4,0.2-2.8,0.2-4.1V87.3
	c0-16-6.3-31.1-17.7-42.5C320.1,33.4,305,27.1,289,27.1h-81.3c-16,0-31.1,6.3-42.5,17.7c-11.4,11.4-17.7,26.5-17.7,42.5v26.4h-23.3
	c-1.3,0-2.5,0.1-3.8,0.4V87.3c0-48,39.3-87.3,87.3-87.3H289c48,0,87.3,39.3,87.3,87.3v42.2c0,7-0.8,13.8-2.4,20.4
	c0.1,0.1,0.1,0.1,0.2,0.2C297.4,234.7,202.2,302.3,94.8,346.3z"/>
<path class="st0" d="M402,252.9v93.5c0,48-39.3,87.3-87.3,87.3H182.1c-11.4,0-22.4-2.2-32.4-6.3C245.3,386.4,330.9,326.7,402,252.9z
	"/>
<path class="st0" d="M392.8,102.9L392.8,102.9c36.4-13.3,57-6.5,44.1,20.3C396.2,207.7,153,378,62.6,387.7c-35,3.7-27.8-11,9.5-50.3
	l0,0c-60.4,57-93.4,90.3-56.6,96.5c102.6,17.3,469.7-237.5,487.6-343.8C508.6,57.3,457.3,72.6,392.8,102.9z"/>
</svg>
