<?xml version="1.0" encoding="utf-8"?>
<!-- Generator: Adobe Illustrator 22.1.0, SVG Export Plug-In . SVG Version: 6.00 Build 0)  -->
<svg version="1.1" id="Layer_2" xmlns="http://www.w3.org/2000/svg" xmlns:xlink="http://www.w3.org/1999/xlink" x="0px" y="0px"
	 viewBox="0 0 512 512" style="enable-background:new 0 0 512 512;" xml:space="preserve">
<style type="text/css">
	.st0{fill:#FFFFFF;}
</style>
<path class="st0" d="M256,0C114.6,0,0,114.6,0,256s114.6,256,256,256s256-114.6,256-256S397.4,0,256,0z M256,59.5
	c108.5,0,196.5,88,196.5,196.5h-393C59.5,147.5,147.5,59.5,256,59.5z M256,452.5c-58.5,0-111-25.6-147-66.1
	c11.8-11,27.6-17.8,45-17.8c4.5,0,8.8,0.4,13.1,1.3c18.5-46.8,64.2-79.9,117.6-79.9c58,0,106.9,39.1,121.8,92.4
	C370.4,425.3,316.4,452.5,256,452.5z"/>
<polygon class="st0" points="225.7,147.1 200.1,121.5 173.7,147.9 147.3,121.5 121.7,147.1 148.1,173.5 121.7,199.9 147.3,225.5 
	173.7,199.1 200.1,225.5 225.7,199.9 199.3,173.5 "/>
<polygon class="st0" points="389.3,147.1 363.7,121.5 337.3,147.9 310.9,121.5 285.3,147.1 311.7,173.5 285.3,199.9 310.9,225.5 
	337.3,199.1 363.7,225.5 389.3,199.9 362.9,173.5 "/>
</svg>
