<?xml version="1.0" encoding="utf-8"?>
<!-- Generator: Adobe Illustrator 22.1.0, SVG Export Plug-In . SVG Version: 6.00 Build 0)  -->
<svg version="1.1" id="Layer_1" xmlns="http://www.w3.org/2000/svg" xmlns:xlink="http://www.w3.org/1999/xlink" x="0px" y="0px"
	 viewBox="0 0 48 48" style="enable-background:new 0 0 48 48;" xml:space="preserve">
<style type="text/css">
	.st0{opacity:0.5;fill:#FFFFFF;}
	.st1{fill:#FFFFFF;}
</style>
<path class="st0" d="M40.3,12.2L40.3,12.2L40.3,12.2c0,0.3-0.1,0.6-0.2,0.9c-2,10.1-8.7,13.6-17.3,13.6h-4.4c-1.1,0-1.9,0.8-2.1,1.8
	l0,0l0,0l-2.2,14.2l-0.6,4c-0.1,0.7,0.4,1.3,1.1,1.3h7.8c0.9,0,1.7-0.7,1.8-1.6l0.1-0.4l1.5-9.3l0.1-0.5c0.1-0.9,0.9-1.6,1.8-1.6
	h1.2c7.5,0,13.4-3.1,15.1-11.9c0.7-3.7,0.3-6.8-1.6-8.9C41.9,13.2,41.2,12.6,40.3,12.2z"/>
<path class="st1" d="M40.3,12.2c0.6-3.7,0-6.3-2-8.6C36.1,1.1,32.1,0,26.9,0H12c-1,0-1.9,0.8-2.1,1.8L3.7,41.2
	c-0.1,0.8,0.5,1.5,1.3,1.5h9.2L16.5,28l-0.1,0.5c0.2-1,1-1.8,2.1-1.8h4.4c8.6,0,15.3-3.5,17.3-13.6C40.2,12.8,40.3,12.5,40.3,12.2"
	/>
</svg>
