<?xml version="1.0" encoding="utf-8"?>
<!-- Generator: Adobe Illustrator 22.1.0, SVG Export Plug-In . SVG Version: 6.00 Build 0)  -->
<svg version="1.1" id="Layer_1" xmlns="http://www.w3.org/2000/svg" xmlns:xlink="http://www.w3.org/1999/xlink" x="0px" y="0px"
	 viewBox="0 0 64 46.7" style="enable-background:new 0 0 64 46.7;" xml:space="preserve">
<style type="text/css">
	.st0{fill:#FFFFFF;}
</style>
<path class="st0" d="M50.3,6.7c-3.8,0-6.9,3.1-6.9,6.9c0,3.8,3.1,6.9,6.9,6.9s6.9-3.1,6.9-6.9C57.2,9.8,54.1,6.7,50.3,6.7z
	 M50.3,6.7c-3.8,0-6.9,3.1-6.9,6.9c0,3.8,3.1,6.9,6.9,6.9s6.9-3.1,6.9-6.9C57.2,9.8,54.1,6.7,50.3,6.7z M50.3,0
	c-7.6,0-13.7,6.2-13.7,13.7v0.2l-8.8,12.8c-1.4,0-2.9,0.2-4.1,0.7c-0.5,0.2-1.2,0.5-1.7,0.9L0,19.1v12.6l17.7,7.2
	c0.7,3.1,2.8,5.7,5.9,7.1c5,2.1,10.9-0.3,13.1-5.4c0.5-1.4,0.9-2.8,0.7-4.1l12.6-9c0.2,0,0.2,0,0.4,0c7.6,0,13.6-6.2,13.6-13.7
	C64,6.4,57.9,0,50.3,0z M34.4,39.6c-1.6,4-6.2,5.9-10,4.1c-1.7-0.7-3.1-2.1-4-3.8l4.5,1.9c2.9,1.2,6.2-0.2,7.4-3.1
	c1.2-2.9-0.2-6.2-3.1-7.4l-4.7-1.9c1.7-0.7,3.8-0.7,5.7,0c1.9,0.9,3.5,2.2,4.1,4.2C35.3,35.6,35.3,37.7,34.4,39.6z M50.3,22.8
	c-5,0-9.2-4.2-9.2-9.2c0-5,4.2-9.2,9.2-9.2s9.2,4.2,9.2,9.2C59.5,18.7,55.3,22.8,50.3,22.8z M50.3,6.7c-3.8,0-6.9,3.1-6.9,6.9
	c0,3.8,3.1,6.9,6.9,6.9s6.9-3.1,6.9-6.9C57.2,9.8,54.1,6.7,50.3,6.7z M50.3,6.7c-3.8,0-6.9,3.1-6.9,6.9c0,3.8,3.1,6.9,6.9,6.9
	s6.9-3.1,6.9-6.9C57.2,9.8,54.1,6.7,50.3,6.7z M50.3,6.7c-3.8,0-6.9,3.1-6.9,6.9c0,3.8,3.1,6.9,6.9,6.9s6.9-3.1,6.9-6.9
	C57.2,9.8,54.1,6.7,50.3,6.7z"/>
</svg>
