<?xml version="1.0" encoding="utf-8"?>
<!-- Generator: Adobe Illustrator 22.1.0, SVG Export Plug-In . SVG Version: 6.00 Build 0)  -->
<svg version="1.1" id="twitter" xmlns="http://www.w3.org/2000/svg" xmlns:xlink="http://www.w3.org/1999/xlink" x="0px" y="0px"
	 viewBox="0 0 126.2 102.6" style="enable-background:new 0 0 126.2 102.6;" xml:space="preserve">
<style type="text/css">
	.st0{fill:#FFFFFF;}
</style>
<title>twitter-original</title>
<path id="original" class="st0" d="M39.7,102.6c47.6,0,73.7-39.5,73.7-73.7c0-1.1,0-2.2-0.1-3.3c5.1-3.7,9.4-8.2,12.9-13.4
	c-4.7,2.1-9.7,3.5-14.9,4.1c5.4-3.2,9.4-8.3,11.4-14.3c-5.1,3-10.6,5.1-16.5,6.3C96.5-2.2,80.1-2.7,69.7,7.1
	c-6.7,6.3-9.6,15.8-7.5,24.7c-20.8-1-40.2-10.9-53.4-27.1c-6.9,11.8-3.4,27,8,34.6c-4.1-0.1-8.1-1.3-11.7-3.3c0,0.1,0,0.2,0,0.3
	c0,12.3,8.7,22.9,20.7,25.4c-3.8,1-7.8,1.2-11.7,0.4c3.4,10.6,13.1,17.8,24.2,18c-9.2,7.2-20.5,11.1-32.2,11.1
	c-2.1,0-4.1-0.1-6.2-0.4C11.8,98.5,25.6,102.6,39.7,102.6"/>
</svg>
