<?xml version="1.0" encoding="utf-8"?>
<!-- Generator: Adobe Illustrator 22.1.0, SVG Export Plug-In . SVG Version: 6.00 Build 0)  -->
<svg version="1.1" id="Layer_1" xmlns="http://www.w3.org/2000/svg" xmlns:xlink="http://www.w3.org/1999/xlink" x="0px" y="0px"
	 viewBox="0 0 110.4 126" style="enable-background:new 0 0 110.4 126;" xml:space="preserve">
<style type="text/css">
	.st0{fill:#FFFFFF;}
</style>
<path class="st0" d="M0,0l10,112.8l45.1,12.5l45.2-12.5L110.5,0H0z M89.5,25.1l-3.4,38.1l-2.4,26.3l-0.2,2.3l-28.3,7.8l-0.1,0
	l-28.3-7.9l-1.9-21.7h13.9l1,11l15.4,4.2l0,0l15.4-4.2l1.6-17.9H40l-0.3-3.1l-0.6-7l-0.3-3.7h34.8l1.3-14.2H21.8l-0.3-3.1l-0.6-7
	l-0.3-3.7h69.3L89.5,25.1z"/>
</svg>
