<?xml version="1.0" encoding="utf-8"?>
<!-- Generator: Adobe Illustrator 22.1.0, SVG Export Plug-In . SVG Version: 6.00 Build 0)  -->
<svg version="1.1"
	 id="Layer_1" xmlns:cc="http://creativecommons.org/ns#" xmlns:dc="http://purl.org/dc/elements/1.1/" xmlns:rdf="http://www.w3.org/1999/02/22-rdf-syntax-ns#"
	 xmlns="http://www.w3.org/2000/svg" xmlns:xlink="http://www.w3.org/1999/xlink" x="0px" y="0px" viewBox="0 0 937 937"
	 style="enable-background:new 0 0 937 937;" xml:space="preserve">
<style type="text/css">
	.st0{fill:none;stroke:#FFFFFF;stroke-width:10.597;stroke-dasharray:39.8522;}
	.st1{fill:#FFFFFF;}
</style>
<path class="st0" d="M880.4,266.2c114.5,224.7,25.2,499.7-199.6,614.2S181.1,905.6,66.6,680.8S41.5,181.1,266.2,66.6
	c145.4-74.1,319.2-65,456,23.9"/>
<path class="st1" d="M641.5,577c-28.3,4.1-40.1,11.8-40.1,29.3c0,18.1,12.1,25.4,32.8,25.4c25.8,0,49.9-15.3,49.9-39.1v-24.8
	C675.2,571.9,669.5,573.2,641.5,577z M641.5,577c-28.3,4.1-40.1,11.8-40.1,29.3c0,18.1,12.1,25.4,32.8,25.4
	c25.8,0,49.9-15.3,49.9-39.1v-24.8C675.2,571.9,669.5,573.2,641.5,577z M473.5,120.3c-195.1,0-353.2,158.1-353.2,353.2
	s158.1,353.2,353.2,353.2s353.2-158.1,353.2-353.2S668.6,120.3,473.5,120.3z M377.8,650.1h-144V418.4h29.6V624h114.4V650.1z
	 M536.7,650.1h-23.8v-25.8c-15.6,21.9-31.2,30.5-55.6,30.5c-32.4,0-53.1-17.8-53.1-45.5V483.5h26.4v115.4c0,20,13.4,32.7,34.3,32.7
	c27.7,0,45.5-22.3,45.5-56.3v-91.9h26.4V650.1z M516.4,327.2c0-57.1,46.3-103.5,103.5-103.5s103.5,46.3,103.5,103.5
	s-46.3,103.5-103.5,103.5S516.4,384.3,516.4,327.2z M712.4,652.3c-13,0-24.5-9.2-27.3-21.9c-14.6,15.6-35.3,24.5-56.6,24.5
	c-33.7,0-54.7-17.8-54.7-48c0-20.3,9.8-35.3,29.2-43.2c10.2-4.1,15.9-5.4,53.4-10.2c21-2.5,27.7-7.3,27.7-18.4v-7
	c0-15.9-13.4-24.8-37.2-24.8c-24.8,0-36.9,9.2-39.1,29.6h-26.7c1.6-38.5,26.4-54,66.8-54c41,0,62.6,15.9,62.6,45.5V617
	c0,8.3,5.1,13,14.3,13c1.6,0,2.9,0,5.7-0.6v20C721.9,651.7,717.8,652.3,712.4,652.3z M601.4,606.2c0,18.1,12.1,25.4,32.8,25.4
	c25.8,0,49.9-15.3,49.9-39.1v-24.8c-8.9,4.1-14.6,5.4-42.6,9.2C613.2,581.1,601.4,588.8,601.4,606.2z"/>
<circle class="st1" cx="826.7" cy="120.3" r="103.5"/>
</svg>
